<svg width="512" height="512" viewBox="0 0 512 512" fill="none" xmlns="http://www.w3.org/2000/svg">
  <defs>
    <linearGradient id="chatnetGradient" x1="96" y1="64" x2="416" y2="416" gradientUnits="userSpaceOnUse">
      <stop stop-color="#F59E0B"/>
      <stop offset="0.52" stop-color="#EC4899"/>
      <stop offset="1" stop-color="#7E22CE"/>
    </linearGradient>
  </defs>
  <rect width="512" height="512" rx="76" fill="transparent"/>
  <g stroke="url(#chatnetGradient)" stroke-width="16" stroke-linecap="round" stroke-linejoin="round">
    <path d="M256 64L120 144L120 304L256 384L392 304L392 144L256 64Z"/>
    <path d="M120 144L256 224L392 144"/>
    <path d="M120 304L256 224L392 304"/>
    <path d="M256 64V224V384"/>
    <circle cx="256" cy="64" r="10" fill="url(#chatnetGradient)"/>
    <circle cx="120" cy="144" r="10" fill="url(#chatnetGradient)"/>
    <circle cx="120" cy="304" r="10" fill="url(#chatnetGradient)"/>
    <circle cx="256" cy="384" r="10" fill="url(#chatnetGradient)"/>
    <circle cx="392" cy="304" r="10" fill="url(#chatnetGradient)"/>
    <circle cx="392" cy="144" r="10" fill="url(#chatnetGradient)"/>
  </g>
  <path d="M256 146L171 196V296L256 346L341 296V196L256 146Z" fill="url(#chatnetGradient)"/>
  <path d="M256 190L209 217V275L256 302L303 275V217L256 190Z" fill="#FFFFFF"/>
  <path d="M256 218L232 232V260L256 274L280 260V232L256 218Z" fill="url(#chatnetGradient)"/>
</svg>
