<svg xmlns="http://www.w3.org/2000/svg" width="250" height="250" fill="none" viewBox="0 0 250 250">
<!-- SVG created with Arrow, by QuiverAI (https://quiver.ai) -->
  <path d="m203 138.9v-72.65c5.05-0.86 6.43-5.48 6.43-7.36 0-5.42-3.67-8.13-7.72-8.13-2.74 0-4.59 0.95-5.95 2.52l-64.44-36.91c0.23-0.78 0.35-1.61 0.29-2.48-0.36-4.58-3.6-6.41-6.68-6.41h-0.01c-4.66 0-7.12 3.81-7.31 7.03-0.08 1.31 0.18 2.49 0.64 3.46l-64.75 35.81c-1.77-2.03-4.05-3.02-6.15-3.02-5.32 0-7.7 4.64-7.7 7.65 0 4.66 2.83 7.03 6.76 7.88v72.58c-4.06 0.74-6.37 4.26-6.37 7.27 0 4.95 3.52 7.75 7.42 7.75 3.09 0 5.04-1.3 6.32-3.02l64.12 37.08c-0.27 0.88-0.4 1.82-0.33 2.81 0.39 5.34 4.18 6.95 7.09 6.95 5.5 0 7.3-5.01 6.94-9.65l64.59-36.96c1.66 1.81 3.91 2.74 5.82 2.74 5.24 0 7.42-4.74 7.42-7.46 0-3.69-2.27-6.69-6.43-7.48zm-8.84-83.61-34.05-4.92c-0.47-3.23-2.76-4.63-5.26-4.63-1.1 0-2.05 0.28-2.84 0.77l-21.5-27.57 63.65 36.35zm-68.68-34.58c0.97-0.26 1.85-0.72 2.62-1.33l21.91 28.11c-0.28 0.69-0.45 1.45-0.48 2.25l-23.37-4.64-0.68-0.41v-23.98zm-2.98 0 0.25 0.14 0.27 23.84-2.1 1.1-21.07 2.98c-0.68-1.34-2-2.28-3.8-2.28-2.92 0-5.29 1.76-6.04 4.45l-34.71 4.86 63.66-36.38-21.84 27.64c0.64 0.35 1.18 0.88 1.59 1.54l22.25-3.16-24.14 10.65-19.09 15.97 14.42-17.36c0.68 0.48 1.5 0.78 2.5 0.78 3.29 0 5.14-2.49 5.46-4.83l20.85-3.06-20.85 9.92-23.25 14.81-21.64-12.06-0.12-1.85 34.97-4.89c0 0.07-0.02 0.14-0.02 0.21l0.16-0.24 0.27-0.04c-0.07-0.16-0.14-0.31-0.19-0.47l-0.16 0.24c-0.1-0.45-0.15-0.91-0.13-1.36l0.15-0.02c-0.01 0.16 0 0.31 0.01 0.46l-0.11 0.02c0.05 0.2 0.11 0.39 0.18 0.58l-0.22 0.03c0.05-0.24 0.09-0.49 0.1-0.74l-0.08 0.01c0.02-0.3 0.06-0.59 0.12-0.87l-0.14 0.02c-0.06 0.31-0.1 0.63-0.11 0.96l0.15-0.02c0 0.13 0.01 0.26 0.02 0.39l-0.28 0.04c0.07-0.34 0.16-0.67 0.28-0.98l-35.21 4.95-0.2-0.64 63.97-37.36 0.32 0.2c0.9 0.9 2.08 1.56 3.55 1.82zm35.7 32.88 35.65 4.82 0.6 1.85-20.59 12.65-14.59-18.57c-0.32-0.2-0.68-0.48-1.07-0.75zm-30.03-6.3 21.75 2.6c0.73 3.2 3.05 4.98 5.74 4.98 0.6 0 1.15-0.11 1.67-0.29l14.13 18.33-23.73-12.91-19.56-12.71zm-79.75 91.51v-72.41l1.03-0.4 12.27 32.5c-1.99 1.15-2.7 3.15-2.7 4.6 0 2.12 0.97 3.78 2.37 4.88l-12.43 30.83h-0.54zm3.4 0.99 12.15-30.83 1.73 0.1 8.03 20.19-20.23 12.26-1.68-1.72zm1.93 5.08-0.25-1.48 20.85-11.35 0.7 0.05 15.08 18.8-0.63 0.52-34.28-4.52-1.47-2.02zm1.47 4.82 34.63 4.7c0.48 3.36 2.43 4.84 5.12 4.84 0.96 0 1.8-0.29 2.53-0.76l21.35 26.78-0.22 0.24-63.41-35.8zm68.03 34.2-2.09 0.32-22.11-26.62c0.28-0.59 0.46-1.24 0.54-1.92l23.16 4.04 0.5 0.4v23.78zm2.38-0.16-0.15-0.08v-23.54l1.03-0.76 23.5-3c0.35 0.64 0.84 1.18 1.44 1.6l-23.5 25.94-2.32-0.16zm4.42 1.28 22.11-25.78h1.59c4.06 0 6.2-2.29 6.91-4.72l33.19-4.82 0.25 0.6-64.05 34.72zm63.8-38.12-33.59 4.2-0.99-1.24 14.43-17.57 1.32-0.11 19.43 11.5 0.25 2.03-0.85 1.19zm2.98-8.09-9.56-30.75c1.87-1.36 2.38-3.4 2.38-4.96 0-2.09-1-3.73-2.38-4.84l12.59-32.26 0.85 0.26v72.15l-3.88 0.4zm-0.84-75.69 1.17 1.96-12.36 32.34h-1.04l-8.19-22.47 20.42-11.83zm-25.03 65.58-9.2-5.94-12 6.5c-0.6-1.56-2.11-3.24-3.7-3.24-4.21 0-5.68 3-5.68 5.83l-15.72 9.43-37.2-18.57v-15.01c3.07-0.68 4.19-3.28 4.19-4.96 0-2.37-1.32-4.04-3.39-4.92v-16.21l36.24-22.4 16.6 10.39c-0.12 0.52-0.19 1.06-0.19 1.62 0 3.18 2.37 5.1 4.94 5.1 1.32 0 2.36-0.22 3.2-0.67l10.71 7.96-12.35 6.42-22.75-14.07-21.94 13.39v26.8l21.94 11.83 22.29-12.39 11.96 5.69-9.25 6.02 0.4 0.76c0.26 0.72 0.39 1.5 0.33 2.32-0.32 4.1-2.98 5.14-5.06 5.14-1.47 0-2.63-0.52-3.52-1.32l-17.15 10.72-40.18-21.32v-16.42c-0.88-0.88-1.35-2.16-1.35-3.88 0-2.69 1.83-4.52 4.02-5.48v-16.73l37.35-21.88 16.65 9.19c1.01-1.48 2.54-1.8 3.81-1.8 3.29 0 4.49 2.72 4.49 4.75 0 0.35-0.04 0.68-0.1 1l12.8 8.98 10.71-6.42 0.96 1.04 8.66 22.87c-1.85 1.03-2.89 2.99-2.89 4.68 0 2.16 1.12 3.76 2.66 4.84l-9.3 20.6-1.99-0.24zm4.46 0.92 8.83-20.65 1.27-0.36 11.31 30.2-0.52 1.47-20.89-10.66zm-100.5-2.92-7.79-26.61 7.79-22.19v48.8zm-9.69-29.28-1.41-0.24-11.8-32.5 1.45-1.56 20.42 11.83v1.72l-8.66 20.75zm27.77 52.68-14.01-17.21 41.64 24.83-21.19-4.04c-0.7-2.78-2.81-4.57-5.09-4.57-0.48 0-0.93 0.12-1.35 0.29v0.7zm63.97-0.63c-0.62-0.32-1.32-0.52-2.15-0.52-3.09 0-5.1 2.03-5.69 4.73l-20.99 3.08 41.4-23.75-12.57 16.46z" fill="url(#paint0_linear_113_255)"/>
  <path d="m20 223.2c0-7.97 4.07-10.9 11.62-10.9h15.91c1.26 0 1.26 0.56 1.26 2.85v2.11h-16.07c-5.4 0-6.39 1.8-6.39 6.79v7.66c0 4.99 1.39 6.15 6.39 6.15h15.79v5.07h-16.89c-7.55 0-11.62-3.28-11.62-9.84v-9.89z" fill="#000"/>
  <path d="m53.62 210.4h5.56v8.55h8.93c7.7 0 10.27 2.21 10.27 9.09v14.94h-5.56v-14.14c0-4.1-1.18-5.1-5.51-5.1h-8.13v19.24h-5.56v-32.58z" fill="#000"/>
  <path d="m82.96 235.6c0-5.14 2.05-7.35 7.77-7.35h10.99v-1c0-2.82-1.18-3.62-3.83-3.62h-13.65v-4.71h13.65c6.77 0 9.09 2.45 9.09 8.77v11.58c0 2.72-0.7 3.68-3.15 3.68h-14.1c-4.64 0-6.77-2.2-6.77-7.35zm8.01 2.8h10.04c0.52 0 0.71-0.32 0.71-0.88v-4.81h-10.27c-2.44 0-3.14 0.72-3.14 3.01 0 1.96 0.7 2.68 2.66 2.68z" fill="#000"/>
  <path d="m113.8 223.6h-3.71v-4.71h3.79v-6.84h5.1v6.84h6.77v4.71h-6.69v10.53c0 2.96 0.96 4.08 3.77 4.08h3.23v4.71h-5.1c-4.92 0-7.16-2.6-7.16-8.11v-11.21z" fill="#000"/>
  <path d="m128.7 226.2h16.89v4.16h-16.89v-4.16z" fill="#000"/>
  <path d="m149.8 214.7c0-2.05 0.62-2.65 2.94-2.65h2.31c1.72 0 2.28 0.6 3.61 2.61l15.43 21.23h0.16v-23.84h5.48v28.23c0 1.6-0.63 2.56-2.27 2.56h-2.86c-1.47 0-2.02-0.72-3.2-2.44l-15.03-20.91h-0.16v23.35h-6.41v-28.14z" fill="#000"/>
  <path d="m184.9 228.5c0-6.92 2.94-9.61 9.27-9.61h6.49c6.49 0 8.7 2.29 8.7 8.69v1.72c0 2.4-1.17 3.44-3.62 3.44h-15.75v0.84c0 3.11 1.26 4.63 5.33 4.63h13.18v4.71h-13.18c-7.4 0-10.42-3.04-10.42-9.84v-4.58zm18.39 0.2c0.71 0 1.02-0.24 1.02-1.04v-0.76c0-2.74-0.94-3.46-3.96-3.46h-5.4c-3.54 0-4.96 0.64-4.96 4.58v0.68h13.3z" fill="#000"/>
  <path d="m215.5 223.6h-3.02v-4.71h3.1v-6.84h5.48v6.84h7.93v4.71h-7.85v10.53c0 2.96 1.26 4.08 4.08 4.08h3.61v4.71h-5.79c-5.26 0-7.54-2.6-7.54-8.11v-11.21z" fill="#000"/>
  <defs>
    <linearGradient id="paint0_linear_113_255" x1="61.14" x2="102.7" y1="25.21" y2="170.6" gradientUnits="userSpaceOnUse">
      <stop stop-color="#F6B011" offset="0"/>
      <stop stop-color="#F9661A" offset=".3438"/>
      <stop stop-color="#D42385" offset=".6927"/>
      <stop stop-color="#9E0DA2" offset="1"/>
    </linearGradient>
  </defs>
</svg>
